<svg width="1200" height="885" viewBox="0 0 1200 885" fill="none" xmlns="http://www.w3.org/2000/svg">
<g clip-path="url(#clip0_133_213)">
<path d="M736.182 490.788H0V0H736.182V490.788Z" fill="#FEFBEC"/>
<path d="M714.199 0V490.788" stroke="#EAE6D5" stroke-width="1.01375" stroke-miterlimit="10"/>
<path d="M691.16 0V490.788" stroke="#EAE6D5" stroke-width="1.01375" stroke-miterlimit="10"/>
<path d="M668.122 0V490.788" stroke="#EAE6D5" stroke-width="1.01375" stroke-miterlimit="10"/>
<path d="M622.044 0V490.788" stroke="#EAE6D5" stroke-width="1.01375" stroke-miterlimit="10"/>
<path d="M599.005 0V490.788" stroke="#EAE6D5" stroke-width="1.01375" stroke-miterlimit="10"/>
<path d="M575.966 0V490.788" stroke="#EAE6D5" stroke-width="1.01375" stroke-miterlimit="10"/>
<path d="M529.89 0V490.788" stroke="#EAE6D5" stroke-width="1.01375" stroke-miterlimit="10"/>
<path d="M506.851 0V490.788" stroke="#EAE6D5" stroke-width="1.01375" stroke-miterlimit="10"/>
<path d="M483.812 0V490.788" stroke="#EAE6D5" stroke-width="1.01375" stroke-miterlimit="10"/>
<path d="M437.735 0V490.788" stroke="#EAE6D5" stroke-width="1.01375" stroke-miterlimit="10"/>
<path d="M414.696 0V490.788" stroke="#EAE6D5" stroke-width="1.01375" stroke-miterlimit="10"/>
<path d="M391.658 0V490.788" stroke="#EAE6D5" stroke-width="1.01375" stroke-miterlimit="10"/>
<path d="M345.58 0V490.788" stroke="#EAE6D5" stroke-width="1.01375" stroke-miterlimit="10"/>
<path d="M322.541 0V490.788" stroke="#EAE6D5" stroke-width="1.01375" stroke-miterlimit="10"/>
<path d="M299.502 0V490.788" stroke="#EAE6D5" stroke-width="1.01375" stroke-miterlimit="10"/>
<path d="M253.425 0V490.788" stroke="#EAE6D5" stroke-width="1.01375" stroke-miterlimit="10"/>
<path d="M230.387 0V490.788" stroke="#EAE6D5" stroke-width="1.01375" stroke-miterlimit="10"/>
<path d="M207.348 0V490.788" stroke="#EAE6D5" stroke-width="1.01375" stroke-miterlimit="10"/>
<path d="M161.271 0V490.788" stroke="#EAE6D5" stroke-width="1.01375" stroke-miterlimit="10"/>
<path d="M138.232 0V490.788" stroke="#EAE6D5" stroke-width="1.01375" stroke-miterlimit="10"/>
<path d="M115.193 0V490.788" stroke="#EAE6D5" stroke-width="1.01375" stroke-miterlimit="10"/>
<path d="M69.1157 0V490.788" stroke="#EAE6D5" stroke-width="1.01375" stroke-miterlimit="10"/>
<path d="M46.0776 0V490.788" stroke="#EAE6D5" stroke-width="1.01375" stroke-miterlimit="10"/>
<path d="M23.0386 0V490.788" stroke="#EAE6D5" stroke-width="1.01375" stroke-miterlimit="10"/>
<path d="M0 24.5394H714.199" stroke="#EAE6D5" stroke-width="1.01375" stroke-miterlimit="10"/>
<path d="M0 49.0788H735.917" stroke="#EAE6D5" stroke-width="1.01375" stroke-miterlimit="10"/>
<path d="M0 73.6182H735.917" stroke="#EAE6D5" stroke-width="1.01375" stroke-miterlimit="10"/>
<path d="M92.1548 0V490.788" stroke="#EAE6D5" stroke-width="2.17465" stroke-miterlimit="10"/>
<path d="M0 98.1576H736.182" stroke="#EAE6D5" stroke-width="2.17465" stroke-miterlimit="10"/>
<path d="M645.083 0V490.788" stroke="#EAE6D5" stroke-width="2.17465" stroke-miterlimit="10"/>
<path d="M552.928 0V490.788" stroke="#EAE6D5" stroke-width="2.17465" stroke-miterlimit="10"/>
<path d="M460.773 0V490.788" stroke="#EAE6D5" stroke-width="2.17465" stroke-miterlimit="10"/>
<path d="M368.619 0V490.788" stroke="#EAE6D5" stroke-width="2.17465" stroke-miterlimit="10"/>
<path d="M276.464 0V490.788" stroke="#EAE6D5" stroke-width="2.17465" stroke-miterlimit="10"/>
<path d="M184.31 0V490.788" stroke="#EAE6D5" stroke-width="2.17465" stroke-miterlimit="10"/>
<path d="M0 196.315H736.182" stroke="#EAE6D5" stroke-width="2.17465" stroke-miterlimit="10"/>
<path d="M0 294.473H736.182" stroke="#EAE6D5" stroke-width="2.17465" stroke-miterlimit="10"/>
<path d="M0 392.631H736.182" stroke="#EAE6D5" stroke-width="2.17465" stroke-miterlimit="10"/>
<path d="M0 122.697H735.917" stroke="#EAE6D5" stroke-width="1.01375" stroke-miterlimit="10"/>
<path d="M0 147.236H735.917" stroke="#EAE6D5" stroke-width="1.01375" stroke-miterlimit="10"/>
<path d="M0 171.776H735.917" stroke="#EAE6D5" stroke-width="1.01375" stroke-miterlimit="10"/>
<path d="M0 220.855H735.917" stroke="#EAE6D5" stroke-width="1.01375" stroke-miterlimit="10"/>
<path d="M0 245.394H735.917" stroke="#EAE6D5" stroke-width="1.01375" stroke-miterlimit="10"/>
<path d="M0 269.934H735.917" stroke="#EAE6D5" stroke-width="1.01375" stroke-miterlimit="10"/>
<path d="M0 319.012H735.917" stroke="#EAE6D5" stroke-width="1.01375" stroke-miterlimit="10"/>
<path d="M0 343.552H735.917" stroke="#EAE6D5" stroke-width="1.01375" stroke-miterlimit="10"/>
<path d="M0 368.091H735.917" stroke="#EAE6D5" stroke-width="1.01375" stroke-miterlimit="10"/>
<path d="M0 417.17H735.917" stroke="#EAE6D5" stroke-width="1.01375" stroke-miterlimit="10"/>
<path d="M0 441.709H735.917" stroke="#EAE6D5" stroke-width="1.01375" stroke-miterlimit="10"/>
<path d="M0 466.249H735.917" stroke="#EAE6D5" stroke-width="1.01375" stroke-miterlimit="10"/>
<path d="M736.183 24.5394H714.199V0" stroke="#EAE6D5" stroke-width="1.01375" stroke-miterlimit="10"/>
<path d="M1292 490.788H554.345V0H1292V490.788Z" fill="#FEFBEC"/>
<path d="M1177.63 0V490.788" stroke="#EAE6D5" stroke-width="1.01375" stroke-miterlimit="10"/>
<path d="M1154.55 0V490.788" stroke="#EAE6D5" stroke-width="1.01375" stroke-miterlimit="10"/>
<path d="M1131.46 0V490.788" stroke="#EAE6D5" stroke-width="1.01375" stroke-miterlimit="10"/>
<path d="M1085.29 0V490.788" stroke="#EAE6D5" stroke-width="1.01375" stroke-miterlimit="10"/>
<path d="M1062.21 0V490.788" stroke="#EAE6D5" stroke-width="1.01375" stroke-miterlimit="10"/>
<path d="M1039.12 0V490.788" stroke="#EAE6D5" stroke-width="1.01375" stroke-miterlimit="10"/>
<path d="M992.956 0V490.788" stroke="#EAE6D5" stroke-width="1.01375" stroke-miterlimit="10"/>
<path d="M969.871 0V490.788" stroke="#EAE6D5" stroke-width="1.01375" stroke-miterlimit="10"/>
<path d="M946.786 0V490.788" stroke="#EAE6D5" stroke-width="1.01375" stroke-miterlimit="10"/>
<path d="M900.616 0V490.788" stroke="#EAE6D5" stroke-width="1.01375" stroke-miterlimit="10"/>
<path d="M877.531 0V490.788" stroke="#EAE6D5" stroke-width="1.01375" stroke-miterlimit="10"/>
<path d="M854.447 0V490.788" stroke="#EAE6D5" stroke-width="1.01375" stroke-miterlimit="10"/>
<path d="M808.277 0V490.788" stroke="#EAE6D5" stroke-width="1.01375" stroke-miterlimit="10"/>
<path d="M785.193 0V490.788" stroke="#EAE6D5" stroke-width="1.01375" stroke-miterlimit="10"/>
<path d="M762.108 0V490.788" stroke="#EAE6D5" stroke-width="1.01375" stroke-miterlimit="10"/>
<path d="M715.939 0V490.788" stroke="#EAE6D5" stroke-width="1.01375" stroke-miterlimit="10"/>
<path d="M692.854 0V490.788" stroke="#EAE6D5" stroke-width="1.01375" stroke-miterlimit="10"/>
<path d="M669.769 0V490.788" stroke="#EAE6D5" stroke-width="1.01375" stroke-miterlimit="10"/>
<path d="M623.6 0V490.788" stroke="#EAE6D5" stroke-width="1.01375" stroke-miterlimit="10"/>
<path d="M600.515 0V490.788" stroke="#EAE6D5" stroke-width="1.01375" stroke-miterlimit="10"/>
<path d="M577.43 0V490.788" stroke="#EAE6D5" stroke-width="1.01375" stroke-miterlimit="10"/>
<path d="M554.345 24.5394H1269.97" stroke="#EAE6D5" stroke-width="1.01375" stroke-miterlimit="10"/>
<path d="M554.345 49.0788H1291.73" stroke="#EAE6D5" stroke-width="1.01375" stroke-miterlimit="10"/>
<path d="M554.345 73.6182H1291.73" stroke="#EAE6D5" stroke-width="1.01375" stroke-miterlimit="10"/>
<path d="M646.685 0V490.788" stroke="#EAE6D5" stroke-width="2.17465" stroke-miterlimit="10"/>
<path d="M554.345 98.1576H1292" stroke="#EAE6D5" stroke-width="2.17465" stroke-miterlimit="10"/>
<path d="M1200.72 0V490.788" stroke="#EAE6D5" stroke-width="2.17465" stroke-miterlimit="10"/>
<path d="M1108.38 0V490.788" stroke="#EAE6D5" stroke-width="2.17465" stroke-miterlimit="10"/>
<path d="M1016.04 0V490.788" stroke="#EAE6D5" stroke-width="2.17465" stroke-miterlimit="10"/>
<path d="M923.702 0V490.788" stroke="#EAE6D5" stroke-width="2.17465" stroke-miterlimit="10"/>
<path d="M831.362 0V490.788" stroke="#EAE6D5" stroke-width="2.17465" stroke-miterlimit="10"/>
<path d="M739.023 0V490.788" stroke="#EAE6D5" stroke-width="2.17465" stroke-miterlimit="10"/>
<path d="M554.345 196.315H1292" stroke="#EAE6D5" stroke-width="2.17465" stroke-miterlimit="10"/>
<path d="M554.345 294.473H1292" stroke="#EAE6D5" stroke-width="2.17465" stroke-miterlimit="10"/>
<path d="M554.345 392.631H1292" stroke="#EAE6D5" stroke-width="2.17465" stroke-miterlimit="10"/>
<path d="M554.345 122.697H1291.73" stroke="#EAE6D5" stroke-width="1.01375" stroke-miterlimit="10"/>
<path d="M554.345 147.236H1291.73" stroke="#EAE6D5" stroke-width="1.01375" stroke-miterlimit="10"/>
<path d="M554.345 171.776H1291.73" stroke="#EAE6D5" stroke-width="1.01375" stroke-miterlimit="10"/>
<path d="M554.345 220.855H1291.73" stroke="#EAE6D5" stroke-width="1.01375" stroke-miterlimit="10"/>
<path d="M554.345 245.394H1291.73" stroke="#EAE6D5" stroke-width="1.01375" stroke-miterlimit="10"/>
<path d="M554.345 269.934H1291.73" stroke="#EAE6D5" stroke-width="1.01375" stroke-miterlimit="10"/>
<path d="M554.345 319.012H1291.73" stroke="#EAE6D5" stroke-width="1.01375" stroke-miterlimit="10"/>
<path d="M554.345 343.552H1291.73" stroke="#EAE6D5" stroke-width="1.01375" stroke-miterlimit="10"/>
<path d="M554.345 368.091H1291.73" stroke="#EAE6D5" stroke-width="1.01375" stroke-miterlimit="10"/>
<path d="M554.345 417.17H1291.73" stroke="#EAE6D5" stroke-width="1.01375" stroke-miterlimit="10"/>
<path d="M554.345 441.709H1291.73" stroke="#EAE6D5" stroke-width="1.01375" stroke-miterlimit="10"/>
<path d="M554.345 466.249H1291.73" stroke="#EAE6D5" stroke-width="1.01375" stroke-miterlimit="10"/>
<path d="M736.182 884.788H0V394H736.182V884.788Z" fill="#FEFBEC"/>
<path d="M714.199 394V884.788" stroke="#EAE6D5" stroke-width="1.01375" stroke-miterlimit="10"/>
<path d="M691.16 394V884.788" stroke="#EAE6D5" stroke-width="1.01375" stroke-miterlimit="10"/>
<path d="M668.122 394V884.788" stroke="#EAE6D5" stroke-width="1.01375" stroke-miterlimit="10"/>
<path d="M622.044 394V884.788" stroke="#EAE6D5" stroke-width="1.01375" stroke-miterlimit="10"/>
<path d="M599.005 394V884.788" stroke="#EAE6D5" stroke-width="1.01375" stroke-miterlimit="10"/>
<path d="M575.966 394V884.788" stroke="#EAE6D5" stroke-width="1.01375" stroke-miterlimit="10"/>
<path d="M529.89 394V884.788" stroke="#EAE6D5" stroke-width="1.01375" stroke-miterlimit="10"/>
<path d="M506.851 394V884.788" stroke="#EAE6D5" stroke-width="1.01375" stroke-miterlimit="10"/>
<path d="M483.812 394V884.788" stroke="#EAE6D5" stroke-width="1.01375" stroke-miterlimit="10"/>
<path d="M437.735 394V884.788" stroke="#EAE6D5" stroke-width="1.01375" stroke-miterlimit="10"/>
<path d="M414.696 394V884.788" stroke="#EAE6D5" stroke-width="1.01375" stroke-miterlimit="10"/>
<path d="M391.658 394V884.788" stroke="#EAE6D5" stroke-width="1.01375" stroke-miterlimit="10"/>
<path d="M345.58 394V884.788" stroke="#EAE6D5" stroke-width="1.01375" stroke-miterlimit="10"/>
<path d="M322.541 394V884.788" stroke="#EAE6D5" stroke-width="1.01375" stroke-miterlimit="10"/>
<path d="M299.502 394V884.788" stroke="#EAE6D5" stroke-width="1.01375" stroke-miterlimit="10"/>
<path d="M253.425 394V884.788" stroke="#EAE6D5" stroke-width="1.01375" stroke-miterlimit="10"/>
<path d="M230.387 394V884.788" stroke="#EAE6D5" stroke-width="1.01375" stroke-miterlimit="10"/>
<path d="M207.348 394V884.788" stroke="#EAE6D5" stroke-width="1.01375" stroke-miterlimit="10"/>
<path d="M161.271 394V884.788" stroke="#EAE6D5" stroke-width="1.01375" stroke-miterlimit="10"/>
<path d="M138.232 394V884.788" stroke="#EAE6D5" stroke-width="1.01375" stroke-miterlimit="10"/>
<path d="M115.193 394V884.788" stroke="#EAE6D5" stroke-width="1.01375" stroke-miterlimit="10"/>
<path d="M69.1157 394V884.788" stroke="#EAE6D5" stroke-width="1.01375" stroke-miterlimit="10"/>
<path d="M46.0776 394V884.788" stroke="#EAE6D5" stroke-width="1.01375" stroke-miterlimit="10"/>
<path d="M23.0386 394V884.788" stroke="#EAE6D5" stroke-width="1.01375" stroke-miterlimit="10"/>
<path d="M0 418.539H714.199" stroke="#EAE6D5" stroke-width="1.01375" stroke-miterlimit="10"/>
<path d="M0 443.079H735.917" stroke="#EAE6D5" stroke-width="1.01375" stroke-miterlimit="10"/>
<path d="M0 467.618H735.917" stroke="#EAE6D5" stroke-width="1.01375" stroke-miterlimit="10"/>
<path d="M92.1548 394V884.788" stroke="#EAE6D5" stroke-width="2.17465" stroke-miterlimit="10"/>
<path d="M0 492.158H736.182" stroke="#EAE6D5" stroke-width="2.17465" stroke-miterlimit="10"/>
<path d="M645.083 394V884.788" stroke="#EAE6D5" stroke-width="2.17465" stroke-miterlimit="10"/>
<path d="M552.928 394V884.788" stroke="#EAE6D5" stroke-width="2.17465" stroke-miterlimit="10"/>
<path d="M460.773 394V884.788" stroke="#EAE6D5" stroke-width="2.17465" stroke-miterlimit="10"/>
<path d="M368.619 394V884.788" stroke="#EAE6D5" stroke-width="2.17465" stroke-miterlimit="10"/>
<path d="M276.464 394V884.788" stroke="#EAE6D5" stroke-width="2.17465" stroke-miterlimit="10"/>
<path d="M184.31 394V884.788" stroke="#EAE6D5" stroke-width="2.17465" stroke-miterlimit="10"/>
<path d="M0 590.315H736.182" stroke="#EAE6D5" stroke-width="2.17465" stroke-miterlimit="10"/>
<path d="M0 688.473H736.182" stroke="#EAE6D5" stroke-width="2.17465" stroke-miterlimit="10"/>
<path d="M0 786.631H736.182" stroke="#EAE6D5" stroke-width="2.17465" stroke-miterlimit="10"/>
<path d="M0 516.697H735.917" stroke="#EAE6D5" stroke-width="1.01375" stroke-miterlimit="10"/>
<path d="M0 541.236H735.917" stroke="#EAE6D5" stroke-width="1.01375" stroke-miterlimit="10"/>
<path d="M0 565.776H735.917" stroke="#EAE6D5" stroke-width="1.01375" stroke-miterlimit="10"/>
<path d="M0 614.855H735.917" stroke="#EAE6D5" stroke-width="1.01375" stroke-miterlimit="10"/>
<path d="M0 639.394H735.917" stroke="#EAE6D5" stroke-width="1.01375" stroke-miterlimit="10"/>
<path d="M0 663.934H735.917" stroke="#EAE6D5" stroke-width="1.01375" stroke-miterlimit="10"/>
<path d="M0 713.012H735.917" stroke="#EAE6D5" stroke-width="1.01375" stroke-miterlimit="10"/>
<path d="M0 737.552H735.917" stroke="#EAE6D5" stroke-width="1.01375" stroke-miterlimit="10"/>
<path d="M0 762.091H735.917" stroke="#EAE6D5" stroke-width="1.01375" stroke-miterlimit="10"/>
<path d="M0 811.17H735.917" stroke="#EAE6D5" stroke-width="1.01375" stroke-miterlimit="10"/>
<path d="M0 835.709H735.917" stroke="#EAE6D5" stroke-width="1.01375" stroke-miterlimit="10"/>
<path d="M0 860.249H735.917" stroke="#EAE6D5" stroke-width="1.01375" stroke-miterlimit="10"/>
<path d="M736.183 418.539H714.199V394" stroke="#EAE6D5" stroke-width="1.01375" stroke-miterlimit="10"/>
<path d="M1292 884.788H554.345V394H1292V884.788Z" fill="#FEFBEC"/>
<path d="M1177.63 394V884.788" stroke="#EAE6D5" stroke-width="1.01375" stroke-miterlimit="10"/>
<path d="M1154.55 394V884.788" stroke="#EAE6D5" stroke-width="1.01375" stroke-miterlimit="10"/>
<path d="M1131.46 394V884.788" stroke="#EAE6D5" stroke-width="1.01375" stroke-miterlimit="10"/>
<path d="M1085.29 394V884.788" stroke="#EAE6D5" stroke-width="1.01375" stroke-miterlimit="10"/>
<path d="M1062.21 394V884.788" stroke="#EAE6D5" stroke-width="1.01375" stroke-miterlimit="10"/>
<path d="M1039.12 394V884.788" stroke="#EAE6D5" stroke-width="1.01375" stroke-miterlimit="10"/>
<path d="M992.956 394V884.788" stroke="#EAE6D5" stroke-width="1.01375" stroke-miterlimit="10"/>
<path d="M969.871 394V884.788" stroke="#EAE6D5" stroke-width="1.01375" stroke-miterlimit="10"/>
<path d="M946.786 394V884.788" stroke="#EAE6D5" stroke-width="1.01375" stroke-miterlimit="10"/>
<path d="M900.616 394V884.788" stroke="#EAE6D5" stroke-width="1.01375" stroke-miterlimit="10"/>
<path d="M877.531 394V884.788" stroke="#EAE6D5" stroke-width="1.01375" stroke-miterlimit="10"/>
<path d="M854.447 394V884.788" stroke="#EAE6D5" stroke-width="1.01375" stroke-miterlimit="10"/>
<path d="M808.277 394V884.788" stroke="#EAE6D5" stroke-width="1.01375" stroke-miterlimit="10"/>
<path d="M785.193 394V884.788" stroke="#EAE6D5" stroke-width="1.01375" stroke-miterlimit="10"/>
<path d="M762.108 394V884.788" stroke="#EAE6D5" stroke-width="1.01375" stroke-miterlimit="10"/>
<path d="M715.939 394V884.788" stroke="#EAE6D5" stroke-width="1.01375" stroke-miterlimit="10"/>
<path d="M692.854 394V884.788" stroke="#EAE6D5" stroke-width="1.01375" stroke-miterlimit="10"/>
<path d="M669.769 394V884.788" stroke="#EAE6D5" stroke-width="1.01375" stroke-miterlimit="10"/>
<path d="M623.6 394V884.788" stroke="#EAE6D5" stroke-width="1.01375" stroke-miterlimit="10"/>
<path d="M600.515 394V884.788" stroke="#EAE6D5" stroke-width="1.01375" stroke-miterlimit="10"/>
<path d="M577.43 394V884.788" stroke="#EAE6D5" stroke-width="1.01375" stroke-miterlimit="10"/>
<path d="M554.345 418.539H1269.97" stroke="#EAE6D5" stroke-width="1.01375" stroke-miterlimit="10"/>
<path d="M554.345 443.079H1291.73" stroke="#EAE6D5" stroke-width="1.01375" stroke-miterlimit="10"/>
<path d="M554.345 467.618H1291.73" stroke="#EAE6D5" stroke-width="1.01375" stroke-miterlimit="10"/>
<path d="M646.685 394V884.788" stroke="#EAE6D5" stroke-width="2.17465" stroke-miterlimit="10"/>
<path d="M554.345 492.158H1292" stroke="#EAE6D5" stroke-width="2.17465" stroke-miterlimit="10"/>
<path d="M1200.72 394V884.788" stroke="#EAE6D5" stroke-width="2.17465" stroke-miterlimit="10"/>
<path d="M1108.38 394V884.788" stroke="#EAE6D5" stroke-width="2.17465" stroke-miterlimit="10"/>
<path d="M1016.04 394V884.788" stroke="#EAE6D5" stroke-width="2.17465" stroke-miterlimit="10"/>
<path d="M923.702 394V884.788" stroke="#EAE6D5" stroke-width="2.17465" stroke-miterlimit="10"/>
<path d="M831.362 394V884.788" stroke="#EAE6D5" stroke-width="2.17465" stroke-miterlimit="10"/>
<path d="M739.023 394V884.788" stroke="#EAE6D5" stroke-width="2.17465" stroke-miterlimit="10"/>
<path d="M554.345 590.315H1292" stroke="#EAE6D5" stroke-width="2.17465" stroke-miterlimit="10"/>
<path d="M554.345 688.473H1292" stroke="#EAE6D5" stroke-width="2.17465" stroke-miterlimit="10"/>
<path d="M554.345 786.631H1292" stroke="#EAE6D5" stroke-width="2.17465" stroke-miterlimit="10"/>
<path d="M554.345 516.697H1291.73" stroke="#EAE6D5" stroke-width="1.01375" stroke-miterlimit="10"/>
<path d="M554.345 541.236H1291.73" stroke="#EAE6D5" stroke-width="1.01375" stroke-miterlimit="10"/>
<path d="M554.345 565.776H1291.73" stroke="#EAE6D5" stroke-width="1.01375" stroke-miterlimit="10"/>
<path d="M554.345 614.855H1291.73" stroke="#EAE6D5" stroke-width="1.01375" stroke-miterlimit="10"/>
<path d="M554.345 639.394H1291.73" stroke="#EAE6D5" stroke-width="1.01375" stroke-miterlimit="10"/>
<path d="M554.345 663.934H1291.73" stroke="#EAE6D5" stroke-width="1.01375" stroke-miterlimit="10"/>
<path d="M554.345 713.012H1291.73" stroke="#EAE6D5" stroke-width="1.01375" stroke-miterlimit="10"/>
<path d="M554.345 737.552H1291.73" stroke="#EAE6D5" stroke-width="1.01375" stroke-miterlimit="10"/>
<path d="M554.345 762.091H1291.73" stroke="#EAE6D5" stroke-width="1.01375" stroke-miterlimit="10"/>
<path d="M554.345 811.17H1291.73" stroke="#EAE6D5" stroke-width="1.01375" stroke-miterlimit="10"/>
<path d="M554.345 835.709H1291.73" stroke="#EAE6D5" stroke-width="1.01375" stroke-miterlimit="10"/>
<path d="M554.345 860.249H1291.73" stroke="#EAE6D5" stroke-width="1.01375" stroke-miterlimit="10"/>
</g>
<defs>
<clipPath id="clip0_133_213">
<rect width="1200" height="885" fill="white"/>
</clipPath>
</defs>
</svg>
